<?xml version="1.0" encoding="utf-8"?>
<!-- Generator: Adobe Illustrator 18.1.1, SVG Export Plug-In . SVG Version: 6.00 Build 0)  -->
<svg version="1.1" id="Layer_1" xmlns="http://www.w3.org/2000/svg" xmlns:xlink="http://www.w3.org/1999/xlink" x="0px" y="0px"
	 viewBox="0 0 102 46.6" enable-background="new 0 0 102 46.6" xml:space="preserve">
<g>
	<g>
		<text transform="matrix(1 0 0 1 36.8218 43.3414)" fill="#4072CB" font-family="'Montserrat-Regular'" font-size="3.1292">e-Procurement Indonesia Aggregator</text>
	</g>
	<g>
		<text transform="matrix(1 0 0 1 36.5032 39.3238)" fill="#0154A4" font-family="'Gilroy-ExtraBold'" font-size="15.2636">YPERION</text>
	</g>
	<g>
		<path fill="#FFB703" d="M9.9,13.4l9.7-4.2l-3.8,16.2c0,0-4.3,2.2-9.9,4.9L9.9,13.4z"/>
		<path fill="#0154A4" d="M11.8,43.8l-8.9-0.1L3.6,40c0,0,6.8-6.3,10.5-7.6L11.8,43.8z"/>
		<path fill="#FFB703" d="M32.3,6.3l9.5-4.2L37,21.6c0,0-4.7-0.3-8.6,0.7C28.4,22.3,32.5,6.2,32.3,6.3z"/>
		<polygon fill="#0154A4" points="27.7,24.6 23.1,43.7 32.3,43.7 36.4,24.1 		"/>
		<polygon fill="#05354F" points="27.7,24.8 26.2,30.6 35.7,27.4 36.7,23.7 		"/>
		<path fill="#0A518C" d="M5.5,32.5l-2,8.2c0,0,26.3-19.3,49.6-15c0,0-10.4-3.6-19.6-3.1C33.5,22.6,19.2,23.5,5.5,32.5z"/>
	</g>
</g>
</svg>
